<?xml version="1.0" encoding="UTF-8"?><svg id="_レイヤー_3" xmlns="http://www.w3.org/2000/svg" viewBox="0 0 283.46 283.46"><defs><style>.cls-1{fill:#fff;}.cls-2{fill:#f8b62d;}</style></defs><path class="cls-2" d="M277.91,126.56L146.38,20.6c-2.38-1.92-5.78-1.92-8.16,0L6.69,126.56c-4.78,3.85-2.06,11.57,4.08,11.57h19.49c3.59,0,6.5,2.91,6.5,6.5v109.72c0,3.59,2.91,6.5,6.5,6.5h198.08c3.59,0,6.5-2.91,6.5-6.5v-109.72c0-3.59,2.91-6.5,6.5-6.5h19.49c6.14,0,8.86-7.72,4.08-11.57Z"/><path class="cls-1" d="M197.02,169.12c-.31.55,1.48,3.2,1.81,4.01,4.88,11.96-.44,19.74,1.89,30.36,1.4,6.36,7.17,8.94,7.72,14.5.46,4.66.45,18.74-1.26,22.75-2.02,4.74-7.97,5.1-12.5,4.62-8.84-.95-5.23-8.82.87-10.58-.1-1.87.11-3.77-.06-5.63-.87-9.23-7.1-9.89-13.03-14.93-3.04-2.58-6.01-6.02-8.22-9.34-.77-1.15-2.58-5.03-3.17-5.61-.91-.9-6.29.48-7.71.89-3.88,1.11-7.54,3.13-11.37,4.4-7.14,2.36-14.46,3.69-22.03,3.24-1.88,7.8-2.1,16.23-3.77,24-2.14,9.97-5.52,14.63-16.5,13.6-3.95-.37-6.11-1.83-5.13-6.19.8-3.53,5.46-3.76,6.34-5.13,1.42-2.21,1.29-13.74,1.11-16.81-.14-2.34-1.2-10.32-2.22-12.12-.42-.74-5.3-3.52-6.55-4.56-7.79-6.51-11.17-15.27-12.02-25.26-.36-4.29.43-13.49-2.51-16.74-2.65-2.94-8.21-1.14-11.65-1.36-1.95-.12-4.66-.88-6.33-1.91-1.14-.71-5.31-5.08-5.97-6.21-1.19-2.04-3.99-7.15-1.48-8.87,1.87-1.28,5.53-2.43,7.75-3.72,5.33-3.11,3.49-3.88,4.95-9.03,2.46-8.67,12.06-13.67,20.62-13.61.14-2.96,1.02-11.88,3.4-13.62,1.99-1.46,3.48.2,4.84,1.63,4.64,4.89,11.63,14.82,12.55,21.5.63,4.56.52,3.47,2.22,7.46,4.35,10.23,5.14,19.59,16.96,23.9,12.64,4.61,27.65-.86,41.05,1.96,2.32.49,8.03,2.86,9.69,2.55,11.96-2.26,10.97-23.41-3.68-21.26-1.42.21-5.81,2.42-6.14,2.36-2.15-.39-.24-3.45.5-4.42,4.91-6.42,14.93-7.06,21.47-2.84,13.32,8.58,10.8,28.72-2.43,36.03Z"/><path class="cls-1" d="M171.79,230.61c.65-.52,1.81-5.16,1.88-6.18.44-6.92-5.98-8.88-9.86-13.43-1.08-1.27-3.91-5.16-4.12-6.65-.1-.69.09-.43.45-.61,1.45-.72,7.2-2.44,8.71-2.44s2.44,3.09,3.23,4.29c3.79,5.77,8.51,10.65,14.49,14.18.9,1.08-.49,5.14-.89,6.63-.98,3.6-3.1,10.65-6.29,12.7-2.41,1.55-9.94,1.74-12.53.74-4.01-1.56-1.73-7.18,1.6-8.44.86-.33,2.86-.41,3.33-.79Z"/><path class="cls-1" d="M98.68,230.27c1.9-1.33,1.67-14.26,1.53-16.96-.23-4.62-1.45-9.24-1.63-13.78.54.01,3.71,3.14,4.51,3.74.84.64,4.54,2.71,4.8,3.09.84,1.24,1.9,10.69,2,12.69.14,2.77.28,10.68-.7,12.95-.41.97-4.05,2.41-5.41,4.26-.68.93-1.59,3.84-1.77,3.96-.73.52-6.82.1-7.99-.3-3.84-1.29-2.31-7.4,1.32-8.88.83-.34,2.99-.54,3.34-.79Z"/><path class="cls-1" d="M94.82,111.74c-3.93.15-7.64,1.5-11.11,3.22-.7-2.45-1.49-11.22.16-12.91.57-.58,1.65-.42,2.36-.19,1.31.43,8.2,7.11,8.5,8.34.12.5.09,1.03.08,1.53Z"/></svg>